<svg xmlns="http://www.w3.org/2000/svg" viewBox="0 0 64 64">
  <defs>
    <linearGradient id="bg" x1="0" x2="1" y1="0" y2="1">
      <stop offset="0%" stop-color="#081120"/>
      <stop offset="100%" stop-color="#040712"/>
    </linearGradient>
    <linearGradient id="fish" x1="0" x2="1" y1="0" y2="0">
      <stop offset="0%" stop-color="#fb923c"/>
      <stop offset="100%" stop-color="#f97316"/>
    </linearGradient>
  </defs>
  <rect width="64" height="64" rx="14" fill="url(#bg)"/>
  <circle cx="32" cy="32" r="26" fill="none" stroke="#67e8f9" stroke-opacity="0.2"/>
  <g transform="translate(7 14)">
    <path d="M10 18c0-7.2 7.8-13 18-13 5.5 0 10.5 1.8 13.8 4.7L50 6v24l-8.2-3.8C38.5 29.2 33.5 31 28 31 17.8 31 10 25.2 10 18Z" fill="url(#fish)" stroke="#fff5eb" stroke-opacity="0.3"/>
    <path d="M17 6c4 3.8 4.2 20 0 24" stroke="#fff7ed" stroke-width="4.6" stroke-linecap="round"/>
    <path d="M30 5.5c3.8 3.4 4 21.2 0 25" stroke="#fff7ed" stroke-width="4.6" stroke-linecap="round"/>
    <path d="M42 10c3.1 2.8 3.2 12.6 0 15.8" stroke="#fff7ed" stroke-width="3.8" stroke-linecap="round"/>
    <circle cx="14" cy="16" r="2.6" fill="#081120"/>
    <circle cx="15.1" cy="15.1" r="0.8" fill="#ffffff"/>
    <path d="M6 18c0-3.4 1.3-6.5 3.6-8.9" fill="none" stroke="#67e8f9" stroke-opacity="0.28" stroke-width="1.6" stroke-linecap="round"/>
  </g>
</svg>
